. 
  
http://www.torrentday.com/        :     The Hottest Private Tracker On The Net!!!


               www . TorrentDay . Com 
(((((((((((((= Enjoy No RAR releases =))))))))))))))))))))


...................................NFO:....................................

.................................................................................
................................................................................
................................................................................
................................................................................
................................................................................
................................................................................
............................................ MMMMMMMMMMMMM......................
........................................MMM.............. MMM...................
.....................................MM......................MM ................
...................................MM..........................M,...............
.................................M: ............................MM..............
...............................M ...........MMMMMMM..............MM.............
                             M8.        MMMMMMMMMMMMM .          NM             
                           ?M.        MMMMMMMMMMMMMMMMM          .MM            
                          M.       +MMMMMMMMM       .~MM.         MM~           
                        IM       .MMMMMMM7            ,MM        .MMM           
                       M:       DMMMMMM.               MM        DMMM.          
                      M.      .MMMMMMM                  M        MMMMZ          
. .  . .. .  . .. .  M .. .  ?MMMMMM?. .. .  . .. .  . .M .  . ..MMMM$ .. .  . .
                   OI      .MMMMMMM                     M        MMMMZ          
                 .M       ,MMMMMM,                     MM       ,MMMM           
                .M.      ,M.MMMM                       M        MMMMM           
                MNMI.   MM MM+M.                       M       .MMMMM           
...............M....MMMIM.$MOM....................... M....... MMMMMM...........
............. M ......MMM7MMI....................... MD...... MMMMMM. ..........
............ M?......O?M.MM.........................=M...... MMMMMMM M M........
.............M...... M  MM .........................M.......MMMMMMM   M. .M ....
............M.......M,M M..........................M.......8MMMMMM .7.MM,.M ....
...........M ......M MMM.........................MM.......MMMMMMM ...M..MN .....
...........M..... MZ MMM........................MM.......MMMMMMM................
..........M,.....MM+MZM .......................M .......MMMMMMM ................
......... ,......M.M M .......................M ...... MMMMMMM .................
.........M .....M.M M .......................MNMM ....MMMMMMM...................
........ MM.... MM.M.......................M..... MMMMMMMMM~....................
......... NMMMMMMMIM..................... M........MMMMMMM .....................
...........MMMMMMMM.....................M ...... MMMMOMMM.......................
........... MMMMMMM...................~M........MM.MMMM ........................
................MMM................. M,......,MMM.MMMM .........................
...................................MM.......MMM.  MM ...........................
................................. M ......MMMM,M M: ............................
............................... M.......MM IM.MMM...............................
............................. MMM. .. MMMM.M7MM ................................
...............................MMMMMMM~ , M8M,..................................
................................MMMMM: M IM.....................................
................................MMMMMZM.M ......................................
................................. 7MMMM.........................................
....................................,,..........................................
                                                                                
                      MAGNET GRoUP PROUDLY PRESENTS :

General
Complete name                    : /home/turbo//Open.House.2010.BDRip.XviD-MAGNET.avi
Format                           : AVI
Format/Info                      : Audio Video Interleave
File size                        : 522 MiB
Duration                         : 1h 26mn
Overall bit rate                 : 840 Kbps
Writing application              : Digiarty AV Encoder version 3.0 building on 20100220

Video
ID                               : 0
Format                           : MPEG-4 Visual
Format profile                   : Advanced Simple@L5
Format settings, BVOP            : Yes
Format settings, QPel            : No
Format settings, GMC             : No warppoints
Format settings, Matrix          : Default (H.263)
Codec ID                         : XVID
Codec ID/Hint                    : XviD
Duration                         : 1h 26mn
Bit rate                         : 699 Kbps
Width                            : 720 pixels
Height                           : 304 pixels
Display aspect ratio             : 2.35:1
Frame rate                       : 25.000 fps
Color space                      : YUV
Chroma subsampling               : 4:2:0
Bit depth                        : 8 bits
Scan type                        : Progressive
Bits/(Pixel*Frame)               : 0.128
Stream size                      : 434 MiB (83%)
Writing library                  : XviD 1.2.1 (UTC 2008-12-04)

Audio
ID                               : 1
Format                           : MPEG Audio
Format version                   : Version 1
Format profile                   : Layer 3
Codec ID                         : 55
Codec ID/Hint                    : MP3
Duration                         : 1h 26mn
Bit rate mode                    : Constant
Bit rate                         : 128 Kbps
Channel(s)                       : 2 channels
Sampling rate                    : 48.0 KHz
Video delay                      : 40ms
Stream size                      : 79.6 MiB (15%)
Alignment                        : Aligned on interleaves
Interleave, duration             : 24 ms (0.60 video frame)
Interleave, preload duration     : 504 ms
Writing library                  : LAME3.98.2